{"glyphs":{"0":{"ha":863,"x_min":161,"x_max":761,"o":"m 726 331 q 697 204 707 247 q 528 14 664 58 q 292 24 410 -26 q 161 160 182 71 q 163 238 153 197 q 197 371 176 296 q 226 496 217 453 q 396 688 258 642 q 632 676 513 726 q 761 540 740 631 q 761 464 771 503 q 726 331 747 406 m 513 206 l 558 404 q 575 482 567 442 q 562 511 576 497 q 524 532 547 525 q 478 540 501 539 q 435 527 454 540 q 408 490 415 514 q 347 218 396 436 q 369 184 347 200 q 419 163 390 168 q 475 167 447 157 q 513 206 503 178 z "},"1":{"ha":560,"x_min":115,"x_max":464,"o":"m 464 696 l 454 650 q 449 628 451 642 l 449 626 l 447 625 l 447 624 l 447 622 l 447 621 l 446 619 l 446 618 l 446 617 l 446 615 l 444 614 l 444 613 l 444 611 l 444 610 l 444 608 l 443 608 l 443 607 l 443 606 l 443 604 l 443 603 l 442 601 l 442 600 l 442 599 l 442 597 l 442 596 l 440 594 l 440 593 l 440 592 l 440 590 l 439 589 l 439 588 l 439 586 l 439 585 l 438 583 l 438 582 l 438 581 l 438 579 l 438 578 l 436 578 l 436 576 l 436 575 l 436 574 l 436 572 l 435 571 l 435 569 l 435 568 l 435 567 l 435 565 l 433 565 l 433 564 l 433 563 l 433 561 l 433 560 l 432 558 l 432 557 l 432 556 l 432 554 l 431 553 l 431 551 l 431 549 l 429 547 l 429 546 l 429 543 l 429 542 l 428 540 l 428 538 l 428 536 l 426 535 l 426 533 l 426 531 l 425 529 l 425 528 l 425 526 l 425 524 l 424 522 l 424 521 l 424 519 l 424 518 l 422 517 l 422 515 l 422 513 l 422 511 l 421 510 l 421 508 l 421 507 l 421 506 l 419 504 l 419 503 l 419 501 l 419 500 l 418 499 l 418 497 l 418 496 l 418 494 l 417 493 l 417 492 l 417 490 l 417 489 l 417 488 l 415 486 l 415 485 l 415 483 l 415 482 l 414 481 l 414 479 l 414 478 l 414 476 l 414 475 l 413 475 l 413 474 l 413 472 l 413 471 l 413 469 l 411 469 l 411 468 l 411 467 l 411 465 l 411 464 l 410 463 l 410 461 l 410 460 l 410 458 l 408 457 l 408 456 l 408 454 l 408 453 l 408 451 l 407 451 l 407 450 l 407 449 l 407 447 l 407 446 l 406 444 l 406 443 l 406 442 l 406 440 l 404 439 l 404 438 l 404 436 l 404 435 l 404 433 l 403 432 l 403 431 l 403 429 l 403 428 l 401 426 l 401 425 l 401 424 l 401 422 l 401 421 l 400 421 l 400 419 l 400 418 l 400 417 l 400 415 l 399 414 l 399 413 l 399 411 l 399 410 l 397 408 l 397 407 l 397 406 l 397 404 l 397 403 l 396 403 l 396 401 l 396 400 l 396 399 l 396 397 l 394 396 l 394 394 l 394 393 l 394 392 l 393 390 l 393 389 l 393 388 l 393 386 l 392 385 l 392 383 l 392 382 l 392 381 l 392 379 l 390 378 l 390 376 l 390 375 l 390 374 l 389 372 l 389 371 l 389 369 l 389 368 l 388 367 l 388 365 l 388 364 l 388 363 l 388 361 l 386 360 l 386 358 l 386 357 l 386 356 l 385 354 l 385 353 l 385 351 l 385 350 l 383 349 l 383 347 l 383 346 l 383 344 l 383 343 l 382 342 l 382 340 l 382 339 l 382 338 l 381 336 l 381 335 l 381 333 l 381 332 l 379 331 l 379 329 l 379 328 l 379 326 l 379 325 l 378 324 l 378 322 l 378 321 l 378 319 l 376 318 l 376 317 l 376 315 l 376 314 l 376 313 l 375 311 l 375 310 l 375 308 l 319 68 l 304 0 l 115 0 l 117 8 l 122 31 l 140 110 l 196 350 l 251 590 l 253 593 l 253 594 l 253 597 l 254 600 l 254 601 l 254 604 l 256 606 l 256 608 l 256 610 l 257 611 l 257 614 l 257 615 l 258 617 l 258 619 l 258 621 l 258 622 l 260 624 l 260 625 l 260 626 l 260 628 l 261 629 l 261 631 l 261 632 l 261 633 l 261 635 l 263 636 l 263 638 l 263 639 l 263 640 l 264 642 l 264 643 l 264 644 l 264 646 l 265 647 l 265 649 l 265 650 l 265 651 l 265 653 l 267 654 l 267 656 l 267 657 l 267 658 l 268 660 l 268 661 l 268 663 l 268 664 l 269 665 l 269 667 l 269 668 l 269 669 l 276 694 l 464 696 z "},"2":{"ha":853,"x_min":103,"x_max":750,"o":"m 688 375 l 513 188 l 736 185 l 690 0 l 103 1 l 542 454 q 569 531 589 508 q 544 539 563 539 l 228 538 l 267 700 l 576 700 q 690 665 644 700 q 749 581 736 631 q 747 475 763 532 q 688 375 732 418 z "},"3":{"ha":931,"x_min":183,"x_max":829,"o":"m 183 -1 l 224 172 q 533 174 460 171 q 606 224 588 175 q 594 288 622 267 q 575 296 586 294 q 556 294 565 294 l 444 296 q 439 296 442 296 l 256 296 l 289 444 l 290 457 l 292 457 q 331 457 307 457 q 611 460 560 460 q 656 490 646 460 q 636 531 664 521 q 622 533 631 533 q 505 533 583 533 q 365 532 426 532 l 306 531 l 344 694 l 654 693 q 771 657 725 694 q 829 567 817 619 q 822 456 842 515 q 751 357 801 397 q 771 267 769 315 q 756 172 772 219 q 709 87 740 125 q 622 24 678 49 q 497 0 567 0 q 183 -1 442 0 z "},"4":{"ha":914,"x_min":188,"x_max":817,"o":"m 817 694 l 807 650 q 801 628 806 640 l 783 549 l 783 546 l 783 544 l 782 543 l 782 540 l 782 539 l 781 538 l 781 535 l 781 533 l 779 532 l 779 531 l 779 528 l 779 526 l 778 525 l 778 524 l 778 522 l 778 519 l 776 518 l 776 517 l 776 515 l 775 514 l 775 513 l 775 511 l 775 510 l 774 507 l 774 506 l 774 504 l 774 503 l 774 501 l 772 500 l 772 499 l 772 497 l 772 496 l 771 494 l 771 493 l 771 492 l 771 490 l 769 489 l 769 488 l 769 486 l 769 485 l 768 483 l 768 482 l 768 481 l 768 479 l 768 478 l 767 476 l 767 475 l 767 474 l 767 472 l 765 471 l 765 469 l 765 468 l 765 467 l 764 465 l 764 464 l 764 463 l 764 461 l 764 460 l 763 460 l 763 458 l 763 457 l 763 456 l 763 454 l 761 453 l 761 451 l 761 450 l 761 449 l 761 447 l 760 447 l 760 446 l 760 444 l 760 443 l 760 442 l 758 440 l 758 439 l 758 438 l 758 436 l 757 435 l 757 433 l 757 432 l 757 431 l 756 429 l 756 428 l 756 426 l 756 425 l 756 424 l 754 424 l 754 422 l 754 421 l 754 419 l 754 418 l 753 418 l 753 417 l 753 415 l 753 414 l 753 413 l 753 411 l 751 411 l 751 410 l 751 408 l 751 407 l 751 406 l 750 404 l 750 403 l 750 401 l 750 400 l 749 399 l 749 397 l 749 396 l 749 394 l 747 393 l 747 392 l 747 390 l 747 389 l 747 388 l 746 386 l 746 385 l 746 383 l 746 382 l 744 381 l 744 379 l 744 378 l 744 376 l 744 375 l 743 375 l 743 374 l 743 372 l 743 371 l 743 369 l 742 369 l 742 368 l 742 367 l 742 365 l 742 364 l 740 363 l 740 361 l 740 360 l 740 358 l 739 357 l 739 356 l 739 354 l 739 353 l 738 351 l 738 350 l 738 349 l 738 347 l 738 346 l 736 344 l 736 343 l 736 342 l 736 340 l 735 339 l 735 338 l 735 336 l 735 335 l 735 333 l 733 332 l 733 331 l 733 329 l 733 328 l 732 326 l 732 325 l 732 324 l 732 322 l 732 321 l 731 319 l 731 318 l 731 317 l 729 315 l 729 314 l 729 313 l 729 311 l 729 310 l 728 308 l 672 67 q 657 -1 663 21 l 469 -1 l 471 7 l 471 8 l 471 10 l 472 11 l 472 13 l 472 14 l 472 15 l 472 17 l 474 17 l 474 18 l 474 19 l 474 21 l 474 22 l 475 24 l 475 25 l 475 26 l 475 28 l 476 29 q 494 108 483 63 l 538 299 q 369 297 454 299 l 188 296 q 190 308 189 301 l 271 671 q 275 694 274 682 q 407 694 342 694 q 464 696 435 694 l 464 694 l 425 531 l 410 461 q 575 461 492 461 l 606 589 q 624 668 615 636 l 629 694 l 817 694 z "},"5":{"ha":1021,"x_min":204,"x_max":925,"o":"m 865 454 q 833 311 864 442 l 779 71 q 763 0 768 24 l 583 0 q 578 0 581 0 q 204 1 511 1 l 247 181 q 625 189 563 189 q 629 189 626 189 l 654 296 q 497 296 551 296 q 338 385 382 296 q 340 558 296 468 q 529 689 394 667 q 596 694 561 694 l 925 696 l 885 529 q 540 529 603 529 q 497 499 506 531 q 515 458 489 468 q 531 457 522 457 q 549 454 539 457 q 685 454 640 454 q 693 453 689 454 l 865 454 z "},"6":{"ha":868,"x_min":233,"x_max":765,"o":"m 500 296 q 425 242 443 293 q 435 181 410 200 q 449 175 440 176 q 496 172 469 172 q 533 174 518 174 q 606 225 589 175 q 594 288 621 268 q 569 296 585 296 q 500 296 542 296 m 347 692 l 532 692 l 483 457 q 608 458 558 458 q 741 379 697 458 q 765 203 785 300 q 708 88 751 132 q 701 81 706 83 q 644 36 676 54 q 597 14 621 22 q 542 2 574 6 q 491 -1 510 -1 q 411 -1 472 -1 q 318 22 358 -1 q 259 81 278 44 q 234 163 240 118 q 243 253 228 208 l 347 692 z "},"7":{"ha":808,"x_min":188,"x_max":713,"o":"m 358 -1 l 369 43 q 375 65 371 53 q 393 144 382 99 l 450 385 q 464 440 457 413 l 482 525 l 188 525 l 229 694 l 713 692 l 604 236 l 572 103 l 553 24 q 547 -3 550 10 l 358 -1 z "},"8":{"ha":919,"x_min":235,"x_max":819,"o":"m 542 529 q 511 528 526 529 q 476 503 486 522 q 476 469 465 485 q 514 453 486 453 q 572 454 543 454 q 626 489 619 457 q 603 528 633 518 q 590 531 597 531 q 542 529 561 529 m 565 181 q 605 219 593 193 q 608 269 617 246 q 575 296 600 292 q 547 296 560 296 q 489 296 521 296 q 419 242 433 289 q 438 183 410 201 q 463 176 449 176 q 565 181 506 176 m 632 29 q 597 14 614 19 q 542 2 574 6 q 491 -1 510 -1 q 411 -1 472 -1 q 292 42 338 -1 q 235 144 246 85 q 249 270 225 204 q 331 379 274 336 q 301 461 307 417 q 309 549 296 506 q 361 628 322 592 q 458 679 400 664 q 642 693 507 694 q 787 631 740 692 q 819 490 833 569 q 749 368 806 419 q 773 281 769 329 q 764 185 776 232 q 717 95 751 138 q 632 29 682 53 z "},"9":{"ha":794,"x_min":175,"x_max":694,"o":"m 417 532 q 376 529 397 531 q 339 503 346 522 q 348 467 332 483 q 392 451 364 451 q 413 453 403 451 q 431 453 424 453 q 500 489 488 453 q 482 529 510 517 q 464 533 474 532 q 417 532 438 532 m 579 0 l 394 0 l 456 301 q 449 301 453 301 q 411 299 431 300 q 365 300 381 299 q 354 300 360 300 q 265 324 304 300 q 203 384 225 347 q 176 466 181 421 q 185 553 171 511 q 237 630 199 594 q 333 682 275 665 q 517 696 382 697 q 662 633 615 694 q 694 493 708 572 q 689 471 692 482 l 579 0 z "}," ":{"ha":417,"x_min":0,"x_max":0,"o":""},"!":{"ha":438,"x_min":21,"x_max":342,"o":"m 181 693 l 342 693 l 257 331 l 97 329 l 181 693 m 60 171 l 221 171 l 178 -3 l 21 -1 l 60 171 z "},"\"":{"ha":658,"x_min":58,"x_max":561,"o":"m 143 821 l 303 821 l 218 458 l 58 457 l 143 821 m 400 821 l 561 819 l 476 457 l 317 457 l 400 821 z "},"'":{"ha":400,"x_min":58,"x_max":303,"o":"m 143 821 l 303 821 l 218 458 l 58 457 l 143 821 z "},"(":{"ha":799,"x_min":72,"x_max":703,"o":"m 703 861 l 278 363 l 458 -179 l 258 -182 l 72 374 l 490 865 l 703 861 z "},")":{"ha":865,"x_min":143,"x_max":769,"o":"m 143 -200 l 564 303 l 379 843 l 579 847 l 769 292 l 356 -203 l 143 -200 z "},"+":{"ha":857,"x_min":176,"x_max":761,"o":"m 624 697 l 614 653 q 608 631 611 644 q 590 551 600 599 l 565 443 q 761 443 663 443 l 724 282 l 715 282 q 699 282 708 282 q 642 281 675 281 q 528 281 571 281 l 479 71 l 464 3 l 275 3 l 276 11 q 282 33 279 19 q 300 113 290 65 l 339 279 q 292 279 310 279 q 235 278 258 278 l 176 279 l 214 443 q 376 443 294 443 l 411 593 l 411 596 l 413 597 l 413 600 l 414 603 l 414 604 l 414 607 l 415 608 l 415 611 l 415 613 l 417 614 l 417 617 l 417 618 l 418 619 l 418 621 l 418 624 l 418 625 l 419 626 l 419 628 l 419 629 l 419 631 l 421 632 l 421 633 l 421 635 l 421 636 l 421 638 l 422 639 l 422 640 l 422 642 l 422 643 l 424 644 l 424 646 l 424 647 l 424 649 l 424 650 l 425 650 l 425 651 l 425 653 l 425 654 l 425 656 l 426 657 l 426 658 l 426 660 l 426 661 l 428 663 l 428 664 l 428 665 l 428 667 l 428 668 l 429 669 l 429 671 l 429 672 l 435 697 l 624 697 z "},",":{"ha":376,"x_min":36,"x_max":281,"o":"m 119 176 l 281 176 l 196 -186 l 36 -187 l 119 176 z "},"-":{"ha":714,"x_min":32,"x_max":617,"o":"m 69 476 l 617 475 l 581 314 l 571 314 q 556 314 565 314 q 497 314 532 314 q 324 313 418 313 l 321 313 l 318 313 l 317 313 l 314 313 l 313 313 l 310 313 l 308 313 l 306 313 l 304 313 l 301 313 l 300 313 l 297 313 l 296 313 l 294 313 l 292 313 l 290 313 l 288 313 l 286 313 l 285 313 l 283 313 l 281 313 l 279 313 l 278 313 l 276 313 l 274 313 l 272 313 l 271 313 l 269 313 l 268 313 l 267 313 l 265 313 l 263 313 l 261 313 l 260 313 l 258 313 l 257 313 l 256 311 l 254 311 l 253 311 l 251 311 l 250 311 l 249 311 l 247 311 l 246 311 l 244 311 l 243 311 l 242 311 l 240 311 l 239 311 l 238 311 l 236 311 l 235 311 l 233 311 l 232 311 l 231 311 l 229 311 l 228 311 l 226 311 l 225 311 l 224 311 l 222 311 l 221 311 l 219 311 l 218 311 l 217 311 l 215 311 l 214 311 l 213 311 l 211 311 l 210 311 l 208 311 l 207 311 l 206 311 l 204 311 l 203 311 l 201 311 l 200 311 l 199 311 l 197 311 l 196 311 l 194 311 l 193 311 l 192 311 l 190 311 l 189 311 l 188 311 l 186 311 l 185 311 l 183 311 l 182 311 l 181 311 l 179 311 l 178 311 l 176 311 l 175 311 l 174 311 l 172 311 l 171 311 l 169 311 l 168 311 l 167 311 l 165 311 l 164 311 l 163 311 l 161 311 l 160 311 l 158 311 l 157 311 l 156 311 l 154 311 l 153 311 l 151 311 l 150 311 l 149 311 q 92 311 115 311 q 72 311 86 311 q 44 311 57 311 l 32 311 l 69 476 z "},".":{"ha":318,"x_min":21,"x_max":221,"o":"m 60 171 l 221 171 l 178 -3 l 21 -1 l 60 171 z "},"/":{"ha":672,"x_min":-61,"x_max":575,"o":"m 575 910 l 113 -267 l -61 -269 l 403 910 l 575 910 z "},":":{"ha":399,"x_min":21,"x_max":301,"o":"m 60 171 l 221 171 l 178 -3 l 21 -1 l 60 171 m 140 576 l 301 576 l 258 403 l 101 404 l 140 576 z "},";":{"ha":513,"x_min":89,"x_max":415,"o":"m 254 601 l 415 601 l 372 428 l 215 429 l 254 601 m 172 188 l 332 186 l 247 -176 l 89 -176 l 172 188 z "},"?":{"ha":889,"x_min":183,"x_max":778,"o":"m 222 160 l 383 160 l 340 -14 l 183 -12 l 222 160 m 238 240 l 328 631 q 603 633 550 633 q 640 663 633 633 q 622 694 646 688 q 611 696 617 696 q 342 694 539 696 l 374 833 l 639 833 q 778 753 740 835 q 768 599 813 678 q 575 493 711 500 q 554 492 565 492 l 460 493 l 399 240 l 238 240 z "},"A":{"ha":779,"x_min":3,"x_max":682,"o":"m 296 535 l 385 694 l 611 693 l 628 535 l 296 535 m 3 -1 l 254 456 l 635 457 l 682 -1 l 486 -1 l 457 292 l 357 293 l 189 0 l 3 -1 z "},"B":{"ha":749,"x_min":1,"x_max":647,"o":"m 301 460 q 429 461 399 461 q 474 493 464 461 q 454 532 482 522 q 440 535 449 535 q 319 533 401 535 l 301 460 m 232 172 q 351 174 317 172 q 424 226 407 175 q 413 289 439 268 q 388 296 401 296 q 379 296 383 296 l 376 296 l 374 296 q 283 297 339 297 q 261 297 272 297 l 232 172 m 3 3 l 81 339 l 126 540 l 163 696 l 472 696 q 589 658 543 696 q 647 569 635 621 q 639 458 658 517 q 569 358 619 399 q 589 269 588 317 q 574 173 590 221 q 527 86 558 125 q 440 24 496 47 q 315 0 385 0 q 1 0 260 0 l 3 3 z "},"C":{"ha":832,"x_min":-4,"x_max":736,"o":"m 693 533 l 344 532 l 201 363 l 265 171 l 610 168 l 571 1 l 118 1 l -4 375 l 267 694 l 736 694 l 693 533 z "},"D":{"ha":835,"x_min":1,"x_max":739,"o":"m 311 526 l 260 307 l 226 161 l 389 161 l 532 331 l 468 525 q 311 526 389 525 m 1 1 l 3 6 l 3 8 l 3 10 l 4 11 l 4 13 l 4 14 l 4 15 l 4 17 l 6 17 l 6 18 l 6 19 l 6 21 l 7 22 l 7 24 l 7 25 l 7 26 l 7 28 l 26 107 l 82 349 l 122 528 l 161 694 l 617 694 l 739 319 l 467 0 l 1 -1 l 1 1 z "},"E":{"ha":740,"x_min":0,"x_max":643,"o":"m 160 694 l 643 694 l 606 532 l 313 531 l 294 456 q 589 456 442 456 l 551 294 l 261 294 l 229 167 l 524 169 l 483 0 l 0 0 l 50 214 q 79 344 63 274 q 108 467 94 410 q 126 547 122 525 l 160 694 z "},"F":{"ha":740,"x_min":0,"x_max":643,"o":"m 161 696 l 643 697 l 606 532 q 318 531 461 532 l 300 456 q 589 456 444 456 l 551 294 l 261 294 l 244 228 l 189 0 l 0 0 l 94 407 l 160 694 l 161 694 l 161 696 z "},"G":{"ha":828,"x_min":-1,"x_max":732,"o":"m 696 533 l 347 532 l 204 363 l 268 169 l 417 169 l 443 292 l 303 294 l 332 456 l 678 456 l 574 0 l 119 0 l -1 374 l 269 694 l 732 694 l 696 533 z "},"H":{"ha":800,"x_min":3,"x_max":704,"o":"m 704 694 l 694 650 l 693 649 l 693 647 l 693 646 l 693 644 l 693 643 l 692 643 l 692 642 l 692 640 l 692 639 l 692 638 l 692 636 l 690 636 l 690 635 l 690 633 l 690 632 l 690 631 l 689 629 l 689 628 l 689 626 l 688 625 l 688 622 l 688 621 l 688 619 l 686 618 l 686 617 l 686 615 l 686 614 l 686 613 l 685 611 l 685 610 l 685 608 l 685 607 l 683 606 l 683 604 l 683 603 l 683 601 l 682 600 l 682 599 l 682 597 l 682 596 l 682 594 l 681 594 l 681 593 l 681 592 l 681 590 l 681 589 l 679 588 l 679 586 l 679 585 l 679 583 l 678 582 l 678 581 l 678 579 l 678 578 l 678 576 l 676 575 l 676 574 l 676 572 l 676 571 l 675 569 l 675 568 l 675 567 l 675 565 l 674 564 l 674 563 l 674 561 l 674 560 l 674 558 l 672 558 l 672 557 l 672 556 l 672 554 l 672 553 l 671 551 l 671 549 l 615 308 l 560 67 q 551 30 556 47 q 546 6 547 13 l 544 -1 l 356 -1 l 358 7 q 363 29 360 15 q 381 108 371 63 l 425 299 q 260 297 342 299 l 190 0 l 3 0 l 35 140 l 108 461 l 110 461 l 125 529 l 163 694 q 294 694 229 694 q 350 696 322 694 l 350 694 l 324 576 l 297 461 q 463 461 379 461 l 492 590 l 510 669 l 517 694 l 704 694 z "},"I":{"ha":444,"x_min":0,"x_max":349,"o":"m 349 696 l 338 650 q 333 628 336 642 q 315 549 325 596 l 260 308 l 204 68 l 188 0 l 0 0 l 1 8 l 7 31 l 25 110 l 81 350 l 136 590 l 136 593 l 138 594 l 138 597 l 139 600 l 139 601 l 139 604 l 140 606 l 140 608 l 140 610 l 142 611 l 142 614 l 142 615 l 142 617 l 143 619 l 143 621 l 143 622 l 144 624 l 144 625 l 144 626 l 144 628 l 144 629 l 146 631 l 146 632 l 146 633 l 146 635 l 147 636 l 147 638 l 147 639 l 147 640 l 147 642 l 149 643 l 149 644 l 149 646 l 149 647 l 150 649 l 150 650 l 150 651 l 150 653 l 151 654 l 151 656 l 151 657 l 151 658 l 153 660 l 153 661 l 153 663 l 153 664 l 153 665 l 154 667 l 154 668 l 154 669 l 160 694 l 349 696 z "},"J":{"ha":729,"x_min":-7,"x_max":632,"o":"m 632 696 l 622 650 q 618 628 621 642 q 599 549 610 596 l 544 308 l 489 68 q 483 47 486 57 l 474 0 l -7 0 l 29 165 l 322 161 l 365 350 l 421 590 l 421 593 l 422 594 l 422 597 l 422 600 l 424 601 l 424 604 l 424 606 l 425 608 l 425 610 l 425 611 l 426 614 l 426 615 l 426 617 l 428 619 l 428 621 l 428 622 l 428 624 l 429 625 l 429 626 l 429 628 l 429 629 l 431 631 l 431 632 l 431 633 l 431 635 l 431 636 l 432 636 l 432 638 l 432 639 l 432 640 l 432 642 l 432 643 l 433 643 l 433 644 l 433 646 l 433 647 l 433 649 l 435 649 l 435 650 l 435 651 l 435 653 l 435 654 l 436 656 l 436 657 l 436 658 l 436 660 l 438 661 l 438 663 l 438 664 l 438 665 l 438 667 l 439 668 l 439 669 l 444 694 l 632 696 z "},"K":{"ha":825,"x_min":-1,"x_max":729,"o":"m 294 467 l 510 696 l 729 694 l 432 388 q 436 375 433 383 l 436 374 l 438 371 l 438 369 l 438 368 l 439 365 l 439 364 l 440 363 l 440 361 l 440 360 l 442 357 l 442 356 l 442 354 l 443 353 l 443 351 l 444 350 l 444 349 l 444 347 l 444 346 l 446 344 l 446 343 l 446 342 l 447 340 l 447 339 l 447 338 l 449 336 l 449 335 l 449 333 l 450 332 l 450 331 l 450 329 l 450 328 l 451 326 l 451 325 l 451 324 l 453 322 l 453 321 l 453 319 l 454 318 l 454 317 l 454 315 l 456 314 l 456 313 l 456 311 l 457 310 l 457 308 l 457 307 l 458 306 l 458 304 l 458 303 l 458 301 l 460 300 l 460 299 l 460 297 l 461 297 l 461 296 l 461 294 l 461 293 l 463 292 l 463 290 l 463 289 l 464 288 l 464 286 l 464 285 l 465 283 l 465 282 l 465 281 l 467 279 l 467 278 l 467 276 l 468 275 l 468 274 l 468 272 l 468 271 l 469 271 l 469 269 l 469 268 l 469 267 l 471 265 l 471 264 l 471 263 l 472 261 l 472 260 l 472 258 l 474 257 l 474 256 l 474 254 l 474 253 l 475 253 l 475 251 l 475 250 l 476 249 l 476 247 l 476 246 l 476 244 l 478 243 l 478 242 l 478 240 l 479 239 l 479 238 l 479 236 l 481 235 l 481 233 l 525 92 l 526 89 l 526 88 l 528 85 l 528 82 l 529 81 l 529 79 l 529 76 l 531 75 l 531 74 l 532 72 l 532 71 l 532 69 l 533 68 l 533 67 l 533 65 l 533 64 l 535 63 l 535 61 l 535 60 l 536 58 l 536 57 l 536 56 l 538 54 l 538 53 l 538 51 l 539 50 l 539 49 l 539 47 l 540 44 l 554 0 l 368 0 q 310 179 333 103 l 308 182 l 308 183 l 307 186 l 307 188 l 306 190 l 306 193 l 306 194 l 304 196 l 304 199 l 303 200 l 303 203 l 301 204 l 301 206 l 300 208 l 300 210 l 300 211 l 299 214 l 299 215 l 297 217 l 297 218 l 297 221 l 296 222 l 296 224 l 296 225 l 294 226 l 294 228 l 294 229 l 293 231 l 293 232 l 293 233 l 292 235 l 292 236 l 292 238 l 290 239 l 290 240 l 290 242 l 289 243 l 289 244 l 289 246 l 289 247 l 288 247 l 288 249 l 288 250 l 288 251 l 286 253 l 286 254 l 286 256 l 285 257 l 285 258 l 285 260 l 283 261 l 283 263 l 283 264 l 283 265 l 282 265 l 282 267 l 282 268 l 282 269 l 281 269 l 281 271 l 281 272 l 281 274 l 279 274 l 279 275 l 279 276 l 279 278 l 278 279 l 278 281 l 278 282 l 276 283 l 276 285 l 276 286 l 275 288 l 275 289 l 275 290 l 275 292 l 274 292 l 274 293 l 274 294 l 272 296 l 272 297 l 272 299 l 272 300 l 271 301 l 271 303 l 271 304 l 269 306 l 269 307 l 269 308 l 268 310 l 268 311 l 268 313 l 267 314 l 267 315 l 267 317 l 267 318 l 265 319 l 265 321 l 264 322 l 264 324 l 264 326 l 263 328 l 188 0 l -1 0 l 160 694 l 347 696 l 294 467 z "},"L":{"ha":619,"x_min":0,"x_max":524,"o":"m 347 696 l 338 650 q 333 628 336 642 l 314 549 l 260 308 l 246 253 l 228 168 l 524 171 l 481 0 l 0 0 l 106 457 l 136 590 l 136 593 l 138 594 l 138 597 l 138 600 l 139 601 l 139 604 l 139 606 l 140 608 l 140 610 l 140 611 l 142 614 l 142 615 l 142 617 l 143 619 l 143 621 l 143 622 l 143 624 l 144 625 l 144 626 l 144 628 l 144 629 l 144 631 l 146 632 l 146 633 l 146 635 l 146 636 l 147 636 l 147 638 l 147 639 l 147 640 l 147 642 l 147 643 l 149 643 l 149 644 l 149 646 l 149 647 l 149 649 l 150 649 l 150 650 l 150 651 l 150 653 l 150 654 l 151 656 l 151 657 l 151 658 l 151 660 l 153 661 l 153 663 l 153 664 l 153 665 l 153 667 l 154 668 l 154 669 l 160 694 l 347 696 z "},"M":{"ha":932,"x_min":-3,"x_max":836,"o":"m -3 0 l 157 696 l 372 693 l 379 272 l 610 694 l 836 696 l 675 0 l 497 0 l 576 369 l 392 0 l 254 0 l 249 342 l 171 0 l -3 0 z "},"N":{"ha":850,"x_min":-4,"x_max":753,"o":"m 753 694 l 743 651 q 739 629 742 643 q 719 550 731 597 l 665 310 l 610 69 l 593 1 l 406 1 q 288 360 331 233 l 275 396 l 183 0 l -4 0 l 157 694 l 344 694 l 344 693 l 476 307 q 486 351 481 329 l 542 592 q 560 671 553 638 l 564 694 l 753 694 z "},"O":{"ha":714,"x_min":4,"x_max":613,"o":"m 578 326 q 547 199 558 243 q 375 4 514 51 q 138 15 257 -35 q 4 151 28 61 q 4 232 -6 190 q 40 368 18 290 q 69 494 60 451 q 242 689 103 642 q 481 678 360 729 q 613 542 590 632 q 613 461 622 503 q 578 326 599 403 m 360 199 l 407 401 q 425 479 415 439 q 410 510 425 496 q 372 532 396 525 q 325 539 349 539 q 281 526 301 539 q 256 489 261 514 q 193 213 242 435 q 215 178 192 194 q 266 156 238 163 q 323 160 294 150 q 360 199 351 171 z "},"P":{"ha":742,"x_min":-6,"x_max":626,"o":"m -6 0 l 103 458 q 424 461 361 461 q 467 492 458 461 q 449 532 475 522 q 433 535 442 535 l 118 532 l 156 696 l 467 694 q 626 606 582 696 q 624 432 668 522 q 433 301 569 324 q 368 296 401 296 l 256 297 l 185 1 l -6 0 z "},"Q":{"ha":703,"x_min":-3,"x_max":601,"o":"m 490 100 l 526 -14 q 542 -61 536 -42 l 556 -106 l 368 -106 q 333 1 351 -56 q 162 8 247 -17 q 27 94 76 32 q -3 236 -22 157 q 32 372 11 294 q 61 497 51 454 q 231 690 94 643 q 469 679 350 731 q 601 543 579 633 q 601 464 611 506 q 565 331 588 407 q 536 203 547 247 q 490 100 524 144 m 282 160 l 264 217 l 264 219 l 263 222 l 263 224 l 261 226 l 261 228 l 261 231 l 260 232 l 260 233 l 258 235 l 258 236 l 258 239 l 257 240 l 257 242 l 256 243 l 256 244 l 256 246 l 256 247 l 254 249 l 254 250 l 254 251 l 253 253 l 253 254 l 253 256 l 251 257 l 251 258 l 251 260 l 250 261 l 250 263 l 250 264 l 246 278 l 244 282 q 369 288 307 285 l 396 404 q 414 483 406 443 q 400 513 415 499 q 362 533 385 526 q 315 541 339 540 q 272 529 292 542 q 246 492 251 517 q 183 218 232 438 q 215 176 183 194 q 282 160 246 158 z "},"R":{"ha":740,"x_min":-3,"x_max":640,"o":"m -3 1 l 101 457 q 422 460 361 460 q 467 492 457 460 q 447 532 475 522 q 433 533 442 533 q 316 533 394 533 q 175 533 238 533 l 117 532 l 156 694 q 463 696 363 694 q 549 678 511 696 q 608 630 588 660 q 639 563 629 600 q 640 488 649 526 q 611 413 631 449 q 552 349 592 378 q 463 307 513 321 l 485 233 l 529 92 l 544 44 l 558 0 l 372 0 q 314 179 339 101 l 278 297 l 250 297 l 181 0 l -3 1 z "},"S":{"ha":817,"x_min":0,"x_max":719,"o":"m 0 1 l 42 181 q 368 189 306 189 q 401 199 388 189 q 420 224 415 210 q 424 254 425 239 q 413 281 422 269 q 388 296 404 293 q 293 296 329 296 q 132 385 178 296 q 136 558 90 468 q 324 689 189 667 q 392 694 357 694 l 719 696 l 681 529 q 336 529 397 529 q 300 515 313 531 q 291 481 288 499 q 313 458 294 463 q 429 458 386 458 q 589 357 542 457 q 590 160 633 264 q 419 11 543 43 q 336 1 379 1 l 0 1 z "},"T":{"ha":686,"x_min":6,"x_max":590,"o":"m 247 694 q 590 694 418 694 l 553 533 l 544 533 q 528 533 538 533 q 469 532 504 533 q 411 532 463 532 q 378 532 408 532 l 325 308 l 271 68 l 254 0 l 67 0 l 68 8 l 74 31 l 92 110 l 147 350 l 189 531 l 121 531 q 64 531 88 531 l 6 531 l 43 694 q 226 694 135 694 q 247 694 236 694 z "},"U":{"ha":747,"x_min":1,"x_max":650,"o":"m 650 694 l 640 650 q 635 628 639 640 l 635 625 l 635 624 l 635 622 l 633 621 l 633 619 l 633 618 l 633 617 l 632 615 l 632 614 l 632 613 l 632 611 l 632 610 l 631 608 l 631 607 l 631 606 l 631 604 l 629 603 l 629 601 l 629 600 l 629 599 l 629 597 l 628 597 l 628 596 l 628 594 l 628 593 l 628 592 l 626 592 l 626 590 l 626 589 l 626 588 l 626 586 l 625 585 l 625 583 l 625 582 l 625 581 l 624 579 l 624 578 l 624 576 l 624 575 l 624 574 l 622 574 l 622 572 l 622 571 l 622 569 l 622 568 l 621 567 l 621 565 l 621 564 l 621 563 l 619 561 l 619 560 l 619 558 l 619 557 l 619 556 l 618 554 l 618 553 l 618 551 l 618 550 l 617 549 l 567 332 l 567 331 q 538 203 549 249 q 368 11 504 57 q 132 22 250 -28 q 1 158 24 69 q 3 236 -7 196 q 13 278 7 256 l 107 694 l 297 694 l 190 231 q 189 222 189 226 q 215 178 183 197 q 287 160 246 158 q 346 189 328 161 l 383 349 l 439 589 q 457 668 449 636 l 463 694 l 650 694 z "},"V":{"ha":782,"x_min":-1,"x_max":686,"o":"m 686 696 l 296 1 l 69 0 l -1 696 l 196 696 l 239 251 l 493 694 l 686 696 z "},"W":{"ha":1126,"x_min":3,"x_max":1029,"o":"m 1029 694 l 639 0 l 453 0 l 431 0 l 431 11 q 431 33 431 19 q 432 111 432 65 q 438 317 435 214 l 299 0 l 74 0 l 3 694 l 199 694 l 242 250 l 435 694 q 446 694 440 694 l 603 694 l 601 686 q 601 664 601 676 q 599 585 600 631 q 593 347 596 476 q 592 247 592 275 l 840 694 l 1029 694 z "},"X":{"ha":851,"x_min":1,"x_max":754,"o":"m 565 694 l 754 696 l 496 343 l 614 0 l 419 -1 l 365 167 l 242 -1 l 1 0 l 301 369 l 199 694 l 375 696 l 432 531 l 565 694 z "},"Y":{"ha":651,"x_min":-1,"x_max":556,"o":"m 354 694 l 556 694 l 296 318 q 293 308 294 313 l 238 68 l 222 0 l 35 0 l 36 7 l 36 8 l 36 10 l 38 11 l 38 13 l 38 14 l 38 15 l 39 17 l 39 18 l 39 19 l 39 21 l 40 22 l 40 24 l 40 25 l 40 26 l 40 28 l 42 29 l 60 108 q 110 328 81 199 l -1 696 l 178 696 l 238 524 l 354 694 z "},"Z":{"ha":918,"x_min":-1,"x_max":821,"o":"m 160 694 l 821 696 q 785 657 803 676 l 328 164 l 703 169 l 663 0 l -1 0 l 482 533 q 124 535 303 533 l 160 694 z "},"_":{"ha":725,"x_min":43,"x_max":628,"o":"m 81 -93 l 628 -93 l 592 -254 l 582 -254 q 565 -254 575 -254 q 508 -254 542 -254 q 333 -256 429 -256 l 332 -256 l 329 -256 l 328 -256 l 325 -256 l 322 -256 l 321 -256 l 318 -256 l 317 -256 l 314 -256 l 313 -256 l 311 -256 l 308 -256 l 307 -256 l 304 -256 l 303 -256 l 301 -256 l 299 -256 l 297 -256 l 296 -256 l 293 -257 l 292 -257 l 290 -257 l 289 -257 l 286 -257 l 285 -257 l 283 -257 l 282 -257 l 281 -257 l 279 -257 l 276 -257 l 275 -257 l 274 -257 l 272 -257 l 271 -257 l 269 -257 l 268 -257 l 267 -257 l 265 -257 l 264 -257 l 263 -257 l 261 -257 l 260 -257 l 258 -257 l 257 -257 l 256 -257 l 254 -257 l 253 -257 l 251 -257 l 250 -257 l 249 -257 l 247 -257 l 246 -257 l 244 -257 l 243 -257 l 242 -257 l 240 -257 l 239 -257 l 238 -257 l 236 -257 l 235 -257 l 233 -257 l 232 -257 l 231 -257 l 229 -257 l 228 -257 l 226 -257 l 225 -257 l 224 -257 l 222 -257 l 221 -257 l 219 -257 l 218 -257 l 217 -257 l 215 -257 l 214 -257 l 213 -257 l 211 -257 l 210 -257 l 208 -257 l 207 -257 l 206 -257 l 204 -257 l 203 -257 l 201 -257 l 200 -257 l 199 -257 l 197 -257 l 196 -257 l 194 -257 l 193 -257 l 192 -257 l 190 -257 l 189 -257 l 188 -257 l 186 -257 l 185 -257 l 183 -257 l 182 -257 l 181 -257 l 179 -257 l 178 -257 l 176 -257 l 175 -257 l 174 -257 l 172 -257 l 171 -257 l 169 -257 l 168 -257 l 167 -257 l 165 -257 l 164 -257 l 163 -257 l 161 -257 l 160 -257 q 101 -257 125 -257 l 43 -257 l 81 -93 z "},"a":{"ha":779,"x_min":3,"x_max":682,"o":"m 296 535 l 385 694 l 611 693 l 628 535 l 296 535 m 3 -1 l 254 456 l 635 457 l 682 -1 l 486 -1 l 457 292 l 357 293 l 189 0 l 3 -1 z "},"b":{"ha":746,"x_min":0,"x_max":646,"o":"m 388 296 q 372 296 379 296 q 323 296 351 296 q 278 296 294 296 l 260 296 l 231 172 q 349 174 315 172 q 422 225 404 175 q 411 288 438 267 q 388 296 401 296 m 568 357 q 587 269 585 317 q 573 173 589 221 q 525 87 557 125 q 438 24 493 49 q 314 0 383 0 q 0 0 228 0 l 0 1 l 11 50 l 40 172 l 107 457 q 428 460 365 460 q 471 492 463 460 q 453 532 479 522 q 438 533 446 533 l 122 532 l 160 694 l 471 694 q 587 658 540 694 q 645 569 633 621 q 638 457 657 517 q 568 357 618 397 z "},"c":{"ha":832,"x_min":-4,"x_max":736,"o":"m 693 533 l 344 532 l 201 363 l 265 171 l 610 168 l 571 1 l 118 1 l -4 375 l 267 694 l 736 694 l 693 533 z "},"d":{"ha":835,"x_min":1,"x_max":739,"o":"m 294 456 q 260 307 290 439 l 226 161 l 389 161 l 532 332 l 468 525 l 122 528 l 161 694 l 617 696 l 739 319 l 467 0 l 104 0 l 1 -1 l 3 7 l 8 29 l 26 108 l 82 349 q 106 456 103 443 l 294 456 z "},"e":{"ha":738,"x_min":1,"x_max":642,"o":"m 104 457 l 588 457 l 550 296 l 260 296 l 228 168 l 522 171 l 482 1 l 1 0 l 104 457 m 160 696 l 642 696 l 604 533 l 122 532 l 160 696 z "},"f":{"ha":740,"x_min":0,"x_max":643,"o":"m 106 456 l 589 456 l 551 294 l 261 294 l 189 0 l 0 0 l 106 456 m 163 694 l 643 694 l 606 532 l 122 531 l 163 694 z "},"g":{"ha":828,"x_min":-1,"x_max":732,"o":"m 696 533 l 347 532 l 204 363 l 268 169 l 417 169 l 443 292 l 303 294 l 332 456 l 678 456 l 574 0 l 119 0 l -1 374 l 269 694 l 732 694 l 696 533 z "},"h":{"ha":796,"x_min":-3,"x_max":700,"o":"m 700 694 l 690 650 q 685 628 688 642 l 685 626 l 683 625 l 683 624 l 683 621 l 683 619 l 682 618 l 682 617 l 682 615 l 682 614 l 681 614 l 681 613 l 681 611 l 681 610 l 681 608 l 679 607 l 679 606 l 679 604 l 679 603 l 678 601 l 678 600 l 678 599 l 678 597 l 678 596 l 676 596 l 676 594 l 676 593 l 676 592 l 676 590 l 675 589 l 675 588 l 675 586 l 675 585 l 674 583 l 674 582 l 674 581 l 674 579 l 674 578 l 672 576 l 672 575 l 672 574 l 672 572 l 672 571 l 671 571 l 671 569 l 671 568 l 671 567 l 671 565 l 669 564 l 669 563 l 669 561 l 668 560 l 668 558 l 668 557 l 668 556 l 668 554 l 667 553 l 667 551 l 667 549 l 611 308 l 556 68 l 540 0 l 351 0 l 353 8 q 358 29 356 17 q 376 110 367 63 l 421 300 q 254 297 338 299 l 186 0 l -3 0 l 49 219 l 104 461 l 104 463 l 290 463 q 458 463 375 463 l 488 590 l 506 669 l 511 696 l 700 694 m 160 696 l 346 696 l 308 531 l 121 529 l 160 696 z "},"i":{"ha":443,"x_min":-3,"x_max":346,"o":"m 293 463 l 186 0 l -3 0 l 104 463 l 293 463 m 160 696 l 346 696 l 308 531 l 121 529 l 160 696 z "},"j":{"ha":736,"x_min":1,"x_max":639,"o":"m 482 0 l 294 0 l 1 0 l 38 165 l 332 163 l 400 463 l 586 463 l 483 6 q 482 0 482 3 m 453 694 l 639 696 l 601 531 l 415 529 l 453 694 z "},"k":{"ha":832,"x_min":6,"x_max":736,"o":"m 439 388 l 440 386 l 440 385 l 440 383 l 440 382 l 442 381 l 442 379 l 442 378 l 443 378 l 443 375 l 488 233 l 489 231 l 489 229 l 490 226 l 490 224 l 492 222 l 492 219 l 493 218 l 493 215 l 494 214 l 494 213 l 496 210 l 496 208 l 496 206 l 497 204 l 497 203 l 499 201 l 499 199 l 499 197 l 500 196 l 500 194 l 501 192 l 501 190 l 501 189 l 503 188 l 503 186 l 503 185 l 504 183 l 504 182 l 504 181 l 506 179 l 506 178 l 506 176 l 507 175 l 507 174 l 507 172 l 507 171 l 508 169 l 508 168 l 508 167 l 510 165 l 510 164 l 510 163 l 511 161 l 511 160 l 511 158 l 511 157 l 513 157 l 513 156 l 513 154 l 513 153 l 514 153 l 514 151 l 514 150 l 514 149 l 515 147 l 515 146 l 515 144 l 517 143 l 517 142 l 517 140 l 518 139 l 518 138 l 518 136 l 519 135 l 519 133 l 519 132 l 521 131 l 521 129 l 521 128 l 521 126 l 522 126 l 522 125 l 522 124 l 522 122 l 524 121 l 524 119 l 524 118 l 525 117 l 525 115 l 525 114 l 526 113 l 526 111 l 526 110 l 528 108 l 528 107 l 528 106 l 529 104 l 529 103 l 529 101 l 529 100 l 531 99 l 531 97 l 531 96 l 532 94 l 532 93 l 532 92 l 533 89 l 535 86 l 535 85 l 535 82 l 536 81 l 536 79 l 538 76 l 538 75 l 539 74 l 539 72 l 539 71 l 540 69 l 540 68 l 540 67 l 540 65 l 542 64 l 542 63 l 542 61 l 543 60 l 543 58 l 543 57 l 543 56 l 544 56 l 544 54 l 544 53 l 546 51 l 546 50 l 546 49 l 546 47 l 547 44 l 561 0 l 375 0 q 317 179 342 101 l 272 321 l 269 329 l 194 0 l 6 0 l 113 463 l 297 463 l 518 694 l 736 694 l 439 388 m 167 694 l 354 696 l 317 531 l 128 529 l 167 694 z "},"l":{"ha":621,"x_min":-1,"x_max":525,"o":"m 226 171 q 525 172 375 171 l 483 3 l 188 1 l 188 0 l -1 0 l 106 463 l 293 463 l 226 171 m 160 696 l 349 697 l 310 532 l 122 531 l 160 696 z "},"m":{"ha":933,"x_min":-1,"x_max":838,"o":"m 122 532 l 160 696 l 375 694 l 376 532 l 122 532 m -1 0 l 104 456 l 378 457 l 382 272 l 611 694 l 838 696 l 676 0 l 499 0 l 579 369 l 393 0 l 257 0 l 250 342 l 172 0 l -1 0 z "},"n":{"ha":854,"x_min":0,"x_max":758,"o":"m 233 532 q 124 531 179 532 l 163 694 l 349 694 l 406 533 l 235 532 l 233 532 m 758 696 l 749 653 q 743 631 746 643 q 725 551 736 597 l 669 310 l 614 69 q 606 31 610 49 q 600 8 601 14 l 599 1 l 410 1 q 371 126 386 82 q 279 399 343 211 l 189 0 l 0 0 l 107 456 l 261 456 l 429 457 l 481 307 l 490 351 l 546 592 l 564 671 l 569 696 l 758 696 z "},"o":{"ha":942,"x_min":-6,"x_max":846,"o":"m 342 531 l 200 363 l 261 163 q 360 163 310 163 l 496 163 l 639 332 l 571 531 l 342 531 m 569 1 l 117 1 l -6 375 l 265 694 l 267 694 l 267 696 l 725 696 l 846 321 l 575 1 q 572 1 574 1 l 569 1 z "},"p":{"ha":742,"x_min":-6,"x_max":626,"o":"m -6 0 l 103 458 q 424 461 361 461 q 467 492 458 461 q 449 532 475 522 q 433 535 442 535 l 118 532 l 156 696 l 467 694 q 626 606 582 696 q 624 432 668 522 q 433 301 569 324 q 368 296 401 296 l 256 297 l 185 1 l -6 0 z "},"q":{"ha":949,"x_min":1,"x_max":851,"o":"m 347 529 l 207 361 l 268 161 q 365 161 317 161 l 439 161 l 422 215 l 408 261 l 404 275 l 403 279 l 588 288 q 593 269 590 278 l 646 331 l 578 529 l 347 529 m 272 693 l 272 694 l 731 694 l 851 319 l 651 83 l 683 -15 q 691 -41 688 -29 q 697 -61 694 -53 l 711 -106 l 525 -106 q 490 0 508 -57 l 122 0 l 1 374 l 272 693 z "},"r":{"ha":740,"x_min":-3,"x_max":640,"o":"m -3 1 l 101 457 q 422 460 361 460 q 467 492 457 460 q 447 532 475 522 q 433 533 442 533 q 316 533 394 533 q 175 533 238 533 l 117 532 l 156 694 q 463 696 363 694 q 549 678 511 696 q 608 630 588 660 q 639 563 629 600 q 640 488 649 526 q 611 413 631 449 q 552 349 592 378 q 463 307 513 321 l 485 233 l 529 92 l 544 44 l 558 0 l 372 0 q 314 179 339 101 l 278 297 l 250 297 l 181 0 l -3 1 z "},"s":{"ha":817,"x_min":0,"x_max":719,"o":"m 0 1 l 42 181 q 368 189 306 189 q 401 199 388 189 q 420 224 415 210 q 424 254 425 239 q 413 281 422 269 q 388 296 404 293 q 293 296 329 296 q 132 385 178 296 q 136 558 90 468 q 324 689 189 667 q 392 694 357 694 l 719 696 l 681 529 q 336 529 397 529 q 300 515 313 531 q 291 481 288 499 q 313 458 294 463 q 429 458 386 458 q 589 357 542 457 q 590 160 633 264 q 419 11 543 43 q 336 1 379 1 l 0 1 z "},"t":{"ha":686,"x_min":6,"x_max":590,"o":"m 43 694 l 590 694 l 553 533 l 544 533 q 528 533 538 533 q 469 532 504 533 q 296 532 390 532 l 293 532 l 292 532 l 289 532 l 286 532 l 285 532 l 282 532 l 281 532 l 278 532 l 276 532 l 274 532 l 272 532 l 271 532 l 268 531 l 267 531 l 264 531 l 263 531 l 261 531 l 258 531 l 257 531 l 256 531 l 253 531 l 251 531 l 250 531 l 249 531 l 247 531 l 244 531 l 243 531 l 242 531 l 240 531 l 239 531 l 238 531 l 236 531 l 235 531 l 233 531 l 232 531 l 231 531 l 228 531 l 226 531 l 225 531 l 224 531 l 222 531 l 221 531 l 219 531 l 218 531 l 217 531 l 215 531 l 214 531 l 213 531 l 211 531 l 210 531 l 208 531 l 207 531 l 206 531 l 204 531 l 203 531 l 201 531 l 200 531 l 199 531 l 197 531 l 196 531 l 194 531 l 193 531 l 192 531 l 190 531 l 189 531 l 188 531 l 186 531 l 185 531 l 183 531 l 182 531 l 181 531 l 179 531 l 178 531 l 176 531 l 175 531 l 174 531 l 172 531 l 171 531 l 169 531 l 168 531 l 167 531 l 165 531 l 164 531 l 163 531 l 161 531 l 160 531 l 158 531 l 157 531 l 156 531 l 154 531 l 153 531 l 151 531 l 150 531 l 149 531 l 147 531 l 146 531 l 144 531 l 143 531 l 142 531 l 140 531 l 139 531 l 138 531 l 136 531 l 135 531 l 133 531 l 132 531 l 131 531 l 129 531 l 128 531 l 126 531 l 125 531 l 124 531 l 121 531 q 64 531 88 531 l 6 531 l 43 694 m 360 456 q 271 68 296 178 l 254 0 l 67 0 l 68 8 l 74 31 l 92 110 q 171 456 117 218 l 360 456 z "},"u":{"ha":756,"x_min":11,"x_max":660,"o":"m 118 694 l 306 694 l 268 531 l 81 529 l 118 694 m 660 694 l 650 650 q 644 628 647 640 q 626 549 636 594 l 576 332 l 576 331 q 547 203 557 249 q 378 11 514 57 q 140 22 260 -28 q 11 158 32 69 q 11 236 1 196 q 24 283 17 258 l 64 461 l 253 461 l 229 378 q 197 222 208 275 q 223 178 192 197 q 295 160 254 158 q 356 189 336 161 l 392 349 l 447 589 q 465 668 458 636 l 472 694 l 660 694 z "},"v":{"ha":697,"x_min":1,"x_max":601,"o":"m 601 693 l 297 0 l 74 0 l 26 456 l 219 456 l 240 250 l 433 694 l 601 693 m 18 531 l 1 694 l 197 694 l 214 532 l 18 531 z "},"w":{"ha":1131,"x_min":7,"x_max":1035,"o":"m 1035 693 l 644 -1 l 458 -1 l 436 0 l 435 10 q 436 32 436 19 q 438 111 436 65 q 442 317 440 213 l 304 0 l 79 -1 l 32 454 l 226 456 l 246 250 l 440 694 q 451 694 446 694 l 607 693 l 607 685 q 606 663 606 676 q 604 585 606 631 q 599 346 601 475 l 596 246 l 846 693 l 1035 693 m 24 531 l 7 693 l 204 694 l 219 531 l 24 531 z "},"x":{"ha":851,"x_min":1,"x_max":754,"o":"m 565 693 l 754 694 l 496 343 l 614 -1 l 419 -1 l 365 167 l 242 -1 l 1 -1 l 301 369 l 199 693 l 375 694 l 431 529 l 565 693 z "},"y":{"ha":651,"x_min":-1,"x_max":556,"o":"m 354 694 l 556 694 l 296 318 q 293 308 294 313 l 238 68 l 222 0 l 35 0 l 36 7 l 36 8 l 36 10 l 38 11 l 38 13 l 38 14 l 38 15 l 39 17 l 39 18 l 39 19 l 39 21 l 40 22 l 40 24 l 40 25 l 40 26 l 40 28 l 42 29 l 60 108 q 110 328 81 199 l -1 696 l 178 696 l 238 524 l 354 694 z "},"z":{"ha":924,"x_min":7,"x_max":828,"o":"m 165 696 l 828 694 l 676 532 l 131 536 l 165 696 m 7 0 l 419 454 l 607 456 l 335 165 l 710 171 l 671 0 l 7 0 z "},"Α":{"ha":779,"x_min":3,"x_max":682,"o":"m 296 535 l 385 694 l 611 693 l 628 535 l 296 535 m 3 -1 l 254 456 l 635 457 l 682 -1 l 486 -1 l 457 292 l 357 293 l 189 0 l 3 -1 z "},"Β":{"ha":749,"x_min":1,"x_max":647,"o":"m 301 460 q 429 461 399 461 q 474 493 464 461 q 454 532 482 522 q 440 535 449 535 q 319 533 401 535 l 301 460 m 232 172 q 351 174 317 172 q 424 226 407 175 q 413 289 439 268 q 388 296 401 296 q 379 296 383 296 l 376 296 l 374 296 q 283 297 339 297 q 261 297 272 297 l 232 172 m 3 3 l 81 339 l 126 540 l 163 696 l 472 696 q 589 658 543 696 q 647 569 635 621 q 639 458 658 517 q 569 358 619 399 q 589 269 588 317 q 574 173 590 221 q 527 86 558 125 q 440 24 496 47 q 315 0 385 0 q 1 0 260 0 l 3 3 z "},"Γ":{"ha":732,"x_min":-4,"x_max":635,"o":"m 153 693 l 635 694 l 597 532 l 115 531 l 153 693 m 97 456 l 288 454 l 253 294 l 181 0 l -4 0 l 97 456 z "},"Δ":{"ha":774,"x_min":1,"x_max":678,"o":"m 279 167 l 465 168 l 440 453 l 435 443 l 279 167 m 1 -1 l 250 457 l 381 694 l 607 694 l 631 457 l 678 0 l 481 0 l 185 0 l 1 -1 z "},"Ε":{"ha":740,"x_min":0,"x_max":643,"o":"m 160 694 l 643 694 l 606 532 l 313 531 l 294 456 q 589 456 442 456 l 551 294 l 261 294 l 229 167 l 524 169 l 483 0 l 0 0 l 50 214 q 79 344 63 274 q 108 467 94 410 q 126 547 122 525 l 160 694 z "},"Ζ":{"ha":918,"x_min":-1,"x_max":821,"o":"m 160 694 l 821 696 q 785 657 803 676 l 328 164 l 703 169 l 663 0 l -1 0 l 482 533 q 124 535 303 533 l 160 694 z "},"Η":{"ha":800,"x_min":3,"x_max":704,"o":"m 704 694 l 694 650 l 693 649 l 693 647 l 693 646 l 693 644 l 693 643 l 692 643 l 692 642 l 692 640 l 692 639 l 692 638 l 692 636 l 690 636 l 690 635 l 690 633 l 690 632 l 690 631 l 689 629 l 689 628 l 689 626 l 688 625 l 688 622 l 688 621 l 688 619 l 686 618 l 686 617 l 686 615 l 686 614 l 686 613 l 685 611 l 685 610 l 685 608 l 685 607 l 683 606 l 683 604 l 683 603 l 683 601 l 682 600 l 682 599 l 682 597 l 682 596 l 682 594 l 681 594 l 681 593 l 681 592 l 681 590 l 681 589 l 679 588 l 679 586 l 679 585 l 679 583 l 678 582 l 678 581 l 678 579 l 678 578 l 678 576 l 676 575 l 676 574 l 676 572 l 676 571 l 675 569 l 675 568 l 675 567 l 675 565 l 674 564 l 674 563 l 674 561 l 674 560 l 674 558 l 672 558 l 672 557 l 672 556 l 672 554 l 672 553 l 671 551 l 671 549 l 615 308 l 560 67 q 551 30 556 47 q 546 6 547 13 l 544 -1 l 356 -1 l 358 7 q 363 29 360 15 q 381 108 371 63 l 425 299 q 260 297 342 299 l 190 0 l 3 0 l 35 140 l 108 461 l 110 461 l 125 529 l 163 694 q 294 694 229 694 q 350 696 322 694 l 350 694 l 324 576 l 297 461 q 463 461 379 461 l 492 590 l 510 669 l 517 694 l 704 694 z "},"Θ":{"ha":700,"x_min":-1,"x_max":599,"o":"m 564 328 q 535 203 544 246 q 365 11 501 57 q 129 22 247 -28 q -1 158 21 68 q 0 236 -10 196 q 35 369 14 293 q 64 494 54 451 q 233 686 96 640 q 469 675 351 725 q 599 539 578 628 q 599 461 608 501 q 564 328 585 404 m 350 203 q 371 296 361 249 q 240 294 306 296 l 203 294 q 185 217 194 257 q 207 183 185 199 q 257 161 229 167 q 313 165 285 156 q 350 203 342 175 m 408 457 q 413 479 411 468 q 399 509 414 494 q 362 531 385 524 q 315 538 339 538 q 272 526 292 539 q 246 489 253 513 q 239 457 243 476 q 408 457 324 457 z "},"Ι":{"ha":444,"x_min":0,"x_max":349,"o":"m 349 696 l 338 650 q 333 628 336 642 q 315 549 325 596 l 260 308 l 204 68 l 188 0 l 0 0 l 1 8 l 7 31 l 25 110 l 81 350 l 136 590 l 136 593 l 138 594 l 138 597 l 139 600 l 139 601 l 139 604 l 140 606 l 140 608 l 140 610 l 142 611 l 142 614 l 142 615 l 142 617 l 143 619 l 143 621 l 143 622 l 144 624 l 144 625 l 144 626 l 144 628 l 144 629 l 146 631 l 146 632 l 146 633 l 146 635 l 147 636 l 147 638 l 147 639 l 147 640 l 147 642 l 149 643 l 149 644 l 149 646 l 149 647 l 150 649 l 150 650 l 150 651 l 150 653 l 151 654 l 151 656 l 151 657 l 151 658 l 153 660 l 153 661 l 153 663 l 153 664 l 153 665 l 154 667 l 154 668 l 154 669 l 160 694 l 349 696 z "},"Κ":{"ha":825,"x_min":-1,"x_max":729,"o":"m 294 467 l 510 696 l 729 694 l 432 388 q 436 375 433 383 l 436 374 l 438 371 l 438 369 l 438 368 l 439 365 l 439 364 l 440 363 l 440 361 l 440 360 l 442 357 l 442 356 l 442 354 l 443 353 l 443 351 l 444 350 l 444 349 l 444 347 l 444 346 l 446 344 l 446 343 l 446 342 l 447 340 l 447 339 l 447 338 l 449 336 l 449 335 l 449 333 l 450 332 l 450 331 l 450 329 l 450 328 l 451 326 l 451 325 l 451 324 l 453 322 l 453 321 l 453 319 l 454 318 l 454 317 l 454 315 l 456 314 l 456 313 l 456 311 l 457 310 l 457 308 l 457 307 l 458 306 l 458 304 l 458 303 l 458 301 l 460 300 l 460 299 l 460 297 l 461 297 l 461 296 l 461 294 l 461 293 l 463 292 l 463 290 l 463 289 l 464 288 l 464 286 l 464 285 l 465 283 l 465 282 l 465 281 l 467 279 l 467 278 l 467 276 l 468 275 l 468 274 l 468 272 l 468 271 l 469 271 l 469 269 l 469 268 l 469 267 l 471 265 l 471 264 l 471 263 l 472 261 l 472 260 l 472 258 l 474 257 l 474 256 l 474 254 l 474 253 l 475 253 l 475 251 l 475 250 l 476 249 l 476 247 l 476 246 l 476 244 l 478 243 l 478 242 l 478 240 l 479 239 l 479 238 l 479 236 l 481 235 l 481 233 l 525 92 l 526 89 l 526 88 l 528 85 l 528 82 l 529 81 l 529 79 l 529 76 l 531 75 l 531 74 l 532 72 l 532 71 l 532 69 l 533 68 l 533 67 l 533 65 l 533 64 l 535 63 l 535 61 l 535 60 l 536 58 l 536 57 l 536 56 l 538 54 l 538 53 l 538 51 l 539 50 l 539 49 l 539 47 l 540 44 l 554 0 l 368 0 q 310 179 333 103 l 308 182 l 308 183 l 307 186 l 307 188 l 306 190 l 306 193 l 306 194 l 304 196 l 304 199 l 303 200 l 303 203 l 301 204 l 301 206 l 300 208 l 300 210 l 300 211 l 299 214 l 299 215 l 297 217 l 297 218 l 297 221 l 296 222 l 296 224 l 296 225 l 294 226 l 294 228 l 294 229 l 293 231 l 293 232 l 293 233 l 292 235 l 292 236 l 292 238 l 290 239 l 290 240 l 290 242 l 289 243 l 289 244 l 289 246 l 289 247 l 288 247 l 288 249 l 288 250 l 288 251 l 286 253 l 286 254 l 286 256 l 285 257 l 285 258 l 285 260 l 283 261 l 283 263 l 283 264 l 283 265 l 282 265 l 282 267 l 282 268 l 282 269 l 281 269 l 281 271 l 281 272 l 281 274 l 279 274 l 279 275 l 279 276 l 279 278 l 278 279 l 278 281 l 278 282 l 276 283 l 276 285 l 276 286 l 275 288 l 275 289 l 275 290 l 275 292 l 274 292 l 274 293 l 274 294 l 272 296 l 272 297 l 272 299 l 272 300 l 271 301 l 271 303 l 271 304 l 269 306 l 269 307 l 269 308 l 268 310 l 268 311 l 268 313 l 267 314 l 267 315 l 267 317 l 267 318 l 265 319 l 265 321 l 264 322 l 264 324 l 264 326 l 263 328 l 188 0 l -1 0 l 160 694 l 347 696 l 294 467 z "},"Λ":{"ha":775,"x_min":-4,"x_max":678,"o":"m -4 0 l 250 457 l 251 457 l 381 694 l 607 694 l 632 457 l 678 0 l 482 0 l 440 453 l 435 443 l 185 0 l -4 0 z "},"Μ":{"ha":932,"x_min":-3,"x_max":836,"o":"m -3 0 l 157 696 l 372 693 l 379 272 l 610 694 l 836 696 l 675 0 l 497 0 l 576 369 l 392 0 l 254 0 l 249 342 l 171 0 l -3 0 z "},"Ν":{"ha":850,"x_min":-4,"x_max":753,"o":"m 753 694 l 743 651 q 739 629 742 643 q 719 550 731 597 l 665 310 l 610 69 l 593 1 l 406 1 q 288 360 331 233 l 275 396 l 183 0 l -4 0 l 157 694 l 344 694 l 344 693 l 476 307 q 486 351 481 329 l 542 592 q 560 671 553 638 l 564 694 l 753 694 z "},"Ξ":{"ha":735,"x_min":-6,"x_max":639,"o":"m 101 456 l 585 457 l 547 294 l 65 296 l 101 456 m 33 165 l 36 167 l 519 169 l 479 0 l -6 0 l 33 165 m 157 694 l 639 694 l 601 532 l 118 531 l 157 694 z "},"Ο":{"ha":694,"x_min":-7,"x_max":593,"o":"m 558 326 q 529 200 539 244 q 360 10 496 56 q 124 21 242 -31 q -7 157 14 67 q -6 233 -15 193 q 29 368 8 292 q 58 493 47 450 q 228 683 90 638 q 464 672 344 724 q 593 536 572 626 q 593 460 603 500 q 558 326 579 401 m 344 201 l 390 400 q 407 478 399 438 q 394 507 408 493 q 356 528 379 521 q 310 535 333 535 q 267 524 286 536 q 240 486 247 511 q 179 215 228 433 q 201 180 179 196 q 251 158 222 164 q 307 163 279 153 q 344 201 335 174 z "},"Π":{"ha":794,"x_min":-4,"x_max":697,"o":"m 697 694 l 688 650 q 683 628 686 642 l 682 626 l 682 625 l 682 624 l 682 621 l 681 619 l 681 618 l 681 617 l 681 615 l 679 614 l 679 613 l 679 611 l 679 610 l 678 608 l 678 607 l 678 606 l 678 604 l 676 603 l 676 601 l 676 600 l 676 599 l 676 597 l 675 596 l 675 594 l 675 593 l 675 592 l 674 590 l 674 589 l 674 588 l 674 586 l 672 585 l 672 583 l 672 582 l 672 581 l 671 579 l 671 578 l 671 576 l 671 575 l 671 574 l 669 572 l 669 571 l 669 569 l 669 568 l 668 567 l 668 565 l 668 564 l 668 563 l 667 561 l 667 560 l 667 558 l 667 557 l 667 556 l 665 554 l 665 553 l 665 551 l 664 549 l 610 308 l 554 68 q 538 0 543 21 l 350 0 l 351 7 q 357 29 354 17 l 357 32 l 357 33 l 358 35 l 358 36 l 358 38 l 358 39 l 360 40 l 360 42 l 360 43 l 360 44 l 361 46 l 361 47 l 361 49 l 361 50 l 361 51 l 363 53 l 363 54 l 363 56 l 363 57 l 364 58 l 364 60 l 364 61 l 364 63 l 364 64 l 365 64 l 365 65 l 365 67 l 365 68 l 365 69 l 367 69 l 367 71 l 367 72 l 367 74 l 367 75 l 368 76 l 368 78 l 368 79 l 368 81 l 369 82 l 369 83 l 369 85 l 369 86 l 369 88 l 371 89 l 371 90 l 371 92 l 371 93 l 372 94 l 372 96 l 372 97 l 372 99 l 372 100 l 374 101 l 374 103 l 374 104 l 374 106 l 375 107 l 375 110 l 431 350 l 472 532 q 307 532 390 532 l 185 0 l -4 0 l 132 586 l 157 694 l 250 694 l 250 696 l 511 696 l 608 696 l 608 694 q 697 694 653 694 z "},"Ρ":{"ha":742,"x_min":-6,"x_max":626,"o":"m -6 0 l 103 458 q 424 461 361 461 q 467 492 458 461 q 449 532 475 522 q 433 535 442 535 l 118 532 l 156 696 l 467 694 q 626 606 582 696 q 624 432 668 522 q 433 301 569 324 q 368 296 401 296 l 256 297 l 185 1 l -6 0 z "},"Σ":{"ha":735,"x_min":-6,"x_max":639,"o":"m 157 694 l 639 694 l 601 532 l 331 532 l 394 326 l 261 168 q 519 169 390 169 l 479 0 l -6 0 l 33 165 l 189 338 l 119 531 l 118 531 l 157 694 z "},"Τ":{"ha":735,"x_min":54,"x_max":639,"o":"m 296 694 q 639 694 468 694 l 601 533 l 593 533 q 576 533 586 533 q 519 532 553 533 q 426 532 468 532 l 426 531 l 425 529 l 425 526 l 425 525 l 424 524 l 424 522 l 424 519 l 424 518 l 422 517 l 422 515 l 422 514 l 422 513 l 421 511 l 421 510 l 421 507 l 421 506 l 419 504 l 419 503 l 419 501 l 419 500 l 418 499 l 418 497 l 418 496 l 418 494 l 417 493 l 417 492 l 417 490 l 417 489 l 417 488 l 415 486 l 415 485 l 415 483 l 415 482 l 414 481 l 414 479 l 414 478 l 414 476 l 414 475 l 413 474 l 413 472 l 413 471 l 413 469 l 411 468 l 411 467 l 411 465 l 411 464 l 410 463 l 410 461 l 410 460 l 410 458 l 410 457 l 408 457 l 408 456 l 408 454 l 408 453 l 408 451 l 407 451 l 407 450 l 407 449 l 407 447 l 407 446 l 406 444 l 406 443 l 406 442 l 406 440 l 404 439 l 404 438 l 404 436 l 404 435 l 404 433 l 403 433 l 403 432 l 403 431 l 403 429 l 403 428 l 401 426 l 401 425 l 401 424 l 401 422 l 400 421 l 400 419 l 400 418 l 400 417 l 400 415 l 399 415 l 399 414 l 399 413 l 399 411 l 399 410 l 397 408 l 397 407 l 397 406 l 397 404 l 397 403 l 396 403 l 396 401 l 396 400 l 396 399 l 396 397 l 394 396 l 394 394 l 394 393 l 394 392 l 393 390 l 393 389 l 393 388 l 393 386 l 393 385 l 392 383 l 392 382 l 392 381 l 392 379 l 390 378 l 390 376 l 390 375 l 390 374 l 389 372 l 389 371 l 389 369 l 389 368 l 388 367 l 388 365 l 388 364 l 388 363 l 388 361 l 386 360 l 386 358 l 386 357 l 386 356 l 385 354 l 385 353 l 385 351 l 385 350 l 385 349 l 383 349 l 383 347 l 383 346 l 383 344 l 383 343 l 382 342 l 382 340 l 382 339 l 382 338 l 381 336 l 381 335 l 381 333 l 381 332 l 381 331 l 379 329 l 379 328 l 379 326 l 379 325 l 378 324 l 378 322 l 378 321 l 378 319 l 376 318 l 376 317 l 376 315 l 376 314 l 375 313 l 375 311 l 375 308 l 319 68 l 304 0 l 115 0 l 117 8 l 122 31 l 140 110 l 196 350 l 238 531 l 171 531 q 113 531 136 531 l 54 531 l 92 694 q 276 694 183 694 q 296 694 286 694 z "},"Υ":{"ha":667,"x_min":13,"x_max":571,"o":"m 367 694 l 571 694 l 310 317 l 307 307 l 253 67 l 236 -1 l 49 -1 l 50 7 l 56 29 l 74 108 q 124 328 94 197 l 13 694 l 193 696 l 251 525 l 367 694 z "},"Φ":{"ha":738,"x_min":15,"x_max":622,"o":"m 419 528 q 404 460 413 494 l 418 460 q 455 475 442 460 q 463 508 468 490 q 439 528 458 525 q 430 528 436 528 q 419 528 424 528 m 238 528 q 215 528 224 528 q 181 514 193 529 q 170 481 168 499 q 189 458 172 464 q 221 458 206 458 l 238 528 m 319 694 l 344 694 q 461 694 404 694 q 622 603 576 693 q 618 429 664 519 q 428 300 565 322 q 367 294 399 294 l 299 -1 l 110 -1 l 182 296 q 169 297 176 297 q 15 390 58 300 q 22 564 -25 474 q 217 692 78 672 q 279 694 247 696 q 319 694 296 694 z "},"Χ":{"ha":851,"x_min":1,"x_max":754,"o":"m 565 694 l 754 696 l 496 343 l 614 0 l 419 -1 l 365 167 l 242 -1 l 1 0 l 301 369 l 199 694 l 375 696 l 432 531 l 565 694 z "},"Ψ":{"ha":793,"x_min":4,"x_max":697,"o":"m 54 696 l 221 696 q 175 494 192 563 q 181 465 169 474 q 206 457 192 456 l 219 458 l 278 696 l 458 696 l 406 464 q 410 463 407 463 q 421 463 413 463 q 437 465 429 463 q 451 476 444 468 q 463 497 458 483 l 511 697 l 697 697 q 640 465 654 518 q 592 383 626 418 q 524 331 558 347 q 447 304 489 314 q 390 293 406 294 q 365 292 374 292 l 299 0 l 111 0 l 182 296 q 35 363 88 294 q 4 518 -18 431 q 54 696 51 696 z "},"Ω":{"ha":817,"x_min":-1,"x_max":703,"o":"m 529 529 q 296 529 342 529 q 260 515 274 531 q 250 483 247 500 q 269 458 253 465 q 499 461 453 461 q 541 489 531 461 q 529 529 551 517 m 404 296 q 250 299 318 296 q 94 390 138 301 q 99 564 53 475 q 293 690 153 672 q 353 694 322 694 q 358 694 356 694 q 542 696 446 697 q 703 603 657 694 q 697 429 743 519 q 506 300 643 322 q 443 296 475 296 q 404 296 426 296 m 38 168 l 40 169 l 142 169 l 624 172 l 579 0 l 104 0 l -1 0 l 38 168 z "},"α":{"ha":779,"x_min":3,"x_max":682,"o":"m 296 535 l 385 694 l 611 693 l 628 535 l 296 535 m 3 -1 l 254 456 l 635 457 l 682 -1 l 486 -1 l 457 292 l 357 293 l 189 0 l 3 -1 z "},"β":{"ha":1096,"x_min":0,"x_max":999,"o":"m 388 296 q 372 296 379 296 q 323 296 351 296 q 278 296 294 296 l 260 296 l 231 172 q 349 174 315 172 q 422 225 404 175 q 411 288 438 267 q 388 296 401 296 m 568 357 q 587 269 585 317 q 573 173 589 221 q 525 87 557 125 q 438 24 493 49 q 314 0 383 0 q 0 0 228 0 l 0 1 l 11 50 l 40 172 l 107 457 q 428 460 365 460 q 471 492 463 460 q 453 532 479 522 q 438 533 446 533 l 122 532 l 160 694 l 471 694 q 587 658 540 694 q 645 569 633 621 q 638 457 657 517 q 568 357 618 397 m 961 -356 l 999 -497 l 849 -536 l 811 -394 l 961 -356 z "},"γ":{"ha":732,"x_min":-7,"x_max":635,"o":"m 153 694 l 340 694 q 635 694 488 694 l 597 532 q 304 531 450 531 l 253 308 l 197 67 l 181 -1 l -7 -1 l -6 7 l 0 29 l 18 108 l 74 349 l 117 535 l 153 694 z "},"δ":{"ha":774,"x_min":1,"x_max":678,"o":"m 279 167 l 465 168 l 440 453 l 435 443 l 279 167 m 1 -1 l 250 457 l 381 694 l 607 694 l 631 457 l 678 0 l 481 0 l 185 0 l 1 -1 z "},"ε":{"ha":738,"x_min":1,"x_max":642,"o":"m 104 457 l 588 457 l 550 296 l 260 296 l 228 168 l 522 171 l 482 1 l 1 0 l 104 457 m 160 696 l 642 696 l 604 533 l 122 532 l 160 696 z "},"ζ":{"ha":924,"x_min":7,"x_max":828,"o":"m 165 696 l 828 694 l 676 532 l 131 536 l 165 696 m 7 0 l 419 454 l 607 456 l 335 165 l 710 171 l 671 0 l 7 0 z "},"η":{"ha":796,"x_min":-3,"x_max":700,"o":"m 700 694 l 690 650 q 685 628 688 642 l 685 626 l 683 625 l 683 624 l 683 621 l 683 619 l 682 618 l 682 617 l 682 615 l 682 614 l 681 614 l 681 613 l 681 611 l 681 610 l 681 608 l 679 607 l 679 606 l 679 604 l 679 603 l 678 601 l 678 600 l 678 599 l 678 597 l 678 596 l 676 596 l 676 594 l 676 593 l 676 592 l 676 590 l 675 589 l 675 588 l 675 586 l 675 585 l 674 583 l 674 582 l 674 581 l 674 579 l 674 578 l 672 576 l 672 575 l 672 574 l 672 572 l 672 571 l 671 571 l 671 569 l 671 568 l 671 567 l 671 565 l 669 564 l 669 563 l 669 561 l 668 560 l 668 558 l 668 557 l 668 556 l 668 554 l 667 553 l 667 551 l 667 549 l 611 308 l 556 68 l 540 0 l 351 0 l 353 8 q 358 29 356 17 q 376 110 367 63 l 421 300 q 254 297 338 299 l 186 0 l -3 0 l 49 219 l 104 461 l 104 463 l 290 463 q 458 463 375 463 l 488 590 l 506 669 l 511 696 l 700 694 m 160 696 l 346 696 l 308 531 l 121 529 l 160 696 z "},"θ":{"ha":700,"x_min":-1,"x_max":599,"o":"m 564 328 q 535 203 544 246 q 365 11 501 57 q 129 22 247 -28 q -1 158 21 68 q 0 236 -10 196 q 35 369 14 293 q 64 494 54 451 q 233 686 96 640 q 469 675 351 725 q 599 539 578 628 q 599 461 608 501 q 564 328 585 404 m 350 203 q 371 296 361 249 q 240 294 306 296 l 203 294 q 185 217 194 257 q 207 183 185 199 q 257 161 229 167 q 313 165 285 156 q 350 203 342 175 m 408 457 q 413 479 411 468 q 399 509 414 494 q 362 531 385 524 q 315 538 339 538 q 272 526 292 539 q 246 489 253 513 q 239 457 243 476 q 408 457 324 457 z "},"ι":{"ha":443,"x_min":-3,"x_max":346,"o":"m 293 463 l 186 0 l -3 0 l 104 463 l 293 463 m 160 696 l 346 696 l 308 531 l 121 529 l 160 696 z "},"κ":{"ha":832,"x_min":6,"x_max":736,"o":"m 439 388 l 440 386 l 440 385 l 440 383 l 440 382 l 442 381 l 442 379 l 442 378 l 443 378 l 443 375 l 488 233 l 489 231 l 489 229 l 490 226 l 490 224 l 492 222 l 492 219 l 493 218 l 493 215 l 494 214 l 494 213 l 496 210 l 496 208 l 496 206 l 497 204 l 497 203 l 499 201 l 499 199 l 499 197 l 500 196 l 500 194 l 501 192 l 501 190 l 501 189 l 503 188 l 503 186 l 503 185 l 504 183 l 504 182 l 504 181 l 506 179 l 506 178 l 506 176 l 507 175 l 507 174 l 507 172 l 507 171 l 508 169 l 508 168 l 508 167 l 510 165 l 510 164 l 510 163 l 511 161 l 511 160 l 511 158 l 511 157 l 513 157 l 513 156 l 513 154 l 513 153 l 514 153 l 514 151 l 514 150 l 514 149 l 515 147 l 515 146 l 515 144 l 517 143 l 517 142 l 517 140 l 518 139 l 518 138 l 518 136 l 519 135 l 519 133 l 519 132 l 521 131 l 521 129 l 521 128 l 521 126 l 522 126 l 522 125 l 522 124 l 522 122 l 524 121 l 524 119 l 524 118 l 525 117 l 525 115 l 525 114 l 526 113 l 526 111 l 526 110 l 528 108 l 528 107 l 528 106 l 529 104 l 529 103 l 529 101 l 529 100 l 531 99 l 531 97 l 531 96 l 532 94 l 532 93 l 532 92 l 533 89 l 535 86 l 535 85 l 535 82 l 536 81 l 536 79 l 538 76 l 538 75 l 539 74 l 539 72 l 539 71 l 540 69 l 540 68 l 540 67 l 540 65 l 542 64 l 542 63 l 542 61 l 543 60 l 543 58 l 543 57 l 543 56 l 544 56 l 544 54 l 544 53 l 546 51 l 546 50 l 546 49 l 546 47 l 547 44 l 561 0 l 375 0 q 317 179 342 101 l 272 321 l 269 329 l 194 0 l 6 0 l 113 463 l 297 463 l 518 694 l 736 694 l 439 388 m 167 694 l 354 696 l 317 531 l 128 529 l 167 694 z "},"λ":{"ha":775,"x_min":-4,"x_max":678,"o":"m -4 0 l 250 457 l 251 457 l 381 694 l 607 694 l 632 457 l 678 0 l 482 0 l 440 453 l 435 443 l 185 0 l -4 0 z "},"μ":{"ha":933,"x_min":-1,"x_max":838,"o":"m 122 532 l 160 696 l 375 694 l 376 532 l 122 532 m -1 0 l 104 456 l 378 457 l 382 272 l 611 694 l 838 696 l 676 0 l 499 0 l 579 369 l 393 0 l 257 0 l 250 342 l 172 0 l -1 0 z "},"ν":{"ha":854,"x_min":0,"x_max":758,"o":"m 233 532 q 124 531 179 532 l 163 694 l 349 694 l 406 533 l 235 532 l 233 532 m 758 696 l 749 653 q 743 631 746 643 q 725 551 736 597 l 669 310 l 614 69 q 606 31 610 49 q 600 8 601 14 l 599 1 l 410 1 q 371 126 386 82 q 279 399 343 211 l 189 0 l 0 0 l 107 456 l 261 456 l 429 457 l 481 307 l 490 351 l 546 592 l 564 671 l 569 696 l 758 696 z "},"ξ":{"ha":735,"x_min":-6,"x_max":639,"o":"m 101 456 l 585 457 l 547 294 l 65 296 l 101 456 m 33 165 l 36 167 l 519 169 l 479 0 l -6 0 l 33 165 m 157 694 l 639 694 l 601 532 l 118 531 l 157 694 z "},"ο":{"ha":942,"x_min":-6,"x_max":846,"o":"m 342 531 l 200 363 l 261 163 q 360 163 310 163 l 496 163 l 639 332 l 571 531 l 342 531 m 569 1 l 117 1 l -6 375 l 265 694 l 267 694 l 267 696 l 725 696 l 846 321 l 575 1 q 572 1 574 1 l 569 1 z "},"π":{"ha":794,"x_min":-3,"x_max":697,"o":"m 293 463 l 186 0 l -3 0 l 104 463 l 293 463 m 697 694 l 688 650 q 683 628 686 642 l 682 626 l 682 625 l 682 624 l 682 621 l 681 619 l 681 618 l 681 617 l 681 615 l 679 614 l 679 613 l 679 611 l 679 610 l 678 608 l 678 607 l 678 606 l 678 604 l 676 603 l 676 601 l 676 600 l 676 599 l 676 597 l 675 596 l 675 594 l 675 593 l 675 592 l 674 590 l 674 589 l 674 588 l 674 586 l 672 585 l 672 583 l 672 582 l 672 581 l 671 579 l 671 578 l 671 576 l 671 575 l 671 574 l 669 572 l 669 571 l 669 569 l 669 568 l 668 567 l 668 565 l 668 564 l 668 563 l 667 561 l 667 560 l 667 558 l 667 557 l 667 556 l 665 554 l 665 553 l 665 551 l 664 549 l 610 308 l 554 68 q 538 0 543 21 l 350 0 l 351 7 q 357 29 354 17 l 357 32 l 357 33 l 358 35 l 358 36 l 358 38 l 358 39 l 360 40 l 360 42 l 360 43 l 360 44 l 361 46 l 361 47 l 361 49 l 361 50 l 361 51 l 363 53 l 363 54 l 363 56 l 363 57 l 364 58 l 364 60 l 364 61 l 364 63 l 364 64 l 365 64 l 365 65 l 365 67 l 365 68 l 365 69 l 367 69 l 367 71 l 367 72 l 367 74 l 367 75 l 368 76 l 368 78 l 368 79 l 368 81 l 369 82 l 369 83 l 369 85 l 369 86 l 369 88 l 371 89 l 371 90 l 371 92 l 371 93 l 372 94 l 372 96 l 372 97 l 372 99 l 372 100 l 374 101 l 374 103 l 374 104 l 374 106 l 375 107 l 375 110 l 431 350 l 472 531 q 222 531 347 531 l 118 529 l 157 694 q 267 694 211 694 l 511 694 l 511 696 l 592 694 l 608 696 l 608 694 l 697 694 z "},"ρ":{"ha":742,"x_min":-6,"x_max":626,"o":"m -6 0 l 103 458 q 424 461 361 461 q 467 492 458 461 q 449 532 475 522 q 433 535 442 535 l 118 532 l 156 696 l 467 694 q 626 606 582 696 q 624 432 668 522 q 433 301 569 324 q 368 296 401 296 l 256 297 l 185 1 l -6 0 z "},"ς":{"ha":735,"x_min":-6,"x_max":639,"o":"m 33 165 l 189 338 l 149 454 l 354 456 l 394 326 l 261 168 q 519 169 390 169 l 479 0 l -6 0 l 33 165 m 157 694 l 639 694 l 601 532 l 118 531 l 157 694 z "},"σ":{"ha":735,"x_min":-6,"x_max":639,"o":"m 33 165 l 189 338 l 149 454 l 354 456 l 394 326 l 261 168 q 519 169 390 169 l 479 0 l -6 0 l 33 165 m 157 694 l 639 694 l 601 532 l 118 531 l 157 694 z "},"τ":{"ha":686,"x_min":6,"x_max":590,"o":"m 43 694 l 590 694 l 553 533 l 544 533 q 528 533 538 533 q 469 532 504 533 q 296 532 390 532 l 293 532 l 292 532 l 289 532 l 286 532 l 285 532 l 282 532 l 281 532 l 278 532 l 276 532 l 274 532 l 272 532 l 271 532 l 268 531 l 267 531 l 264 531 l 263 531 l 261 531 l 258 531 l 257 531 l 256 531 l 253 531 l 251 531 l 250 531 l 249 531 l 247 531 l 244 531 l 243 531 l 242 531 l 240 531 l 239 531 l 238 531 l 236 531 l 235 531 l 233 531 l 232 531 l 231 531 l 228 531 l 226 531 l 225 531 l 224 531 l 222 531 l 221 531 l 219 531 l 218 531 l 217 531 l 215 531 l 214 531 l 213 531 l 211 531 l 210 531 l 208 531 l 207 531 l 206 531 l 204 531 l 203 531 l 201 531 l 200 531 l 199 531 l 197 531 l 196 531 l 194 531 l 193 531 l 192 531 l 190 531 l 189 531 l 188 531 l 186 531 l 185 531 l 183 531 l 182 531 l 181 531 l 179 531 l 178 531 l 176 531 l 175 531 l 174 531 l 172 531 l 171 531 l 169 531 l 168 531 l 167 531 l 165 531 l 164 531 l 163 531 l 161 531 l 160 531 l 158 531 l 157 531 l 156 531 l 154 531 l 153 531 l 151 531 l 150 531 l 149 531 l 147 531 l 146 531 l 144 531 l 143 531 l 142 531 l 140 531 l 139 531 l 138 531 l 136 531 l 135 531 l 133 531 l 132 531 l 131 531 l 129 531 l 128 531 l 126 531 l 125 531 l 124 531 l 121 531 q 64 531 88 531 l 6 531 l 43 694 m 360 456 q 271 68 296 178 l 254 0 l 67 0 l 68 8 l 74 31 l 92 110 q 171 456 117 218 l 360 456 z "},"υ":{"ha":667,"x_min":13,"x_max":571,"o":"m 367 694 l 571 694 l 310 317 l 307 307 l 253 67 l 236 -1 l 49 -1 l 50 7 l 56 29 l 74 108 q 124 328 94 197 l 13 694 l 193 696 l 251 525 l 367 694 z "},"φ":{"ha":738,"x_min":15,"x_max":622,"o":"m 419 528 q 404 460 413 494 l 418 460 q 455 475 442 460 q 463 508 468 490 q 439 528 458 525 q 430 528 436 528 q 419 528 424 528 m 238 528 q 215 528 224 528 q 181 514 193 529 q 170 481 168 499 q 189 458 172 464 q 221 458 206 458 l 238 528 m 319 694 l 344 694 q 461 694 404 694 q 622 603 576 693 q 618 429 664 519 q 428 300 565 322 q 367 294 399 294 l 299 -1 l 110 -1 l 182 296 q 169 297 176 297 q 15 390 58 300 q 22 564 -25 474 q 217 692 78 672 q 279 694 247 696 q 319 694 296 694 z "},"χ":{"ha":851,"x_min":1,"x_max":754,"o":"m 565 694 l 754 696 l 496 343 l 614 0 l 419 -1 l 365 167 l 242 -1 l 1 0 l 301 369 l 199 694 l 375 696 l 432 531 l 565 694 z "},"ψ":{"ha":793,"x_min":4,"x_max":697,"o":"m 54 696 l 221 696 q 175 494 192 563 q 181 465 169 474 q 206 457 192 456 l 219 458 l 278 696 l 458 696 l 406 464 q 410 463 407 463 q 421 463 413 463 q 437 465 429 463 q 451 476 444 468 q 463 497 458 483 l 511 697 l 697 697 q 640 465 654 518 q 592 383 626 418 q 524 331 558 347 q 447 304 489 314 q 390 293 406 294 q 365 292 374 292 l 299 0 l 111 0 l 182 296 q 35 363 88 294 q 4 518 -18 431 q 54 696 51 696 z "},"ω":{"ha":817,"x_min":-1,"x_max":703,"o":"m 529 529 q 296 529 342 529 q 260 515 274 531 q 250 483 247 500 q 269 458 253 465 q 499 461 453 461 q 541 489 531 461 q 529 529 551 517 m 404 296 q 250 299 318 296 q 94 390 138 301 q 99 564 53 475 q 293 690 153 672 q 353 694 322 694 q 358 694 356 694 q 542 696 446 697 q 703 603 657 694 q 697 429 743 519 q 506 300 643 322 q 443 296 475 296 q 404 296 426 296 m 38 168 l 40 169 l 142 169 l 624 172 l 579 0 l 104 0 l -1 0 l 38 168 z "},"‘":{"ha":400,"x_min":58,"x_max":303,"o":"m 143 821 l 303 821 l 218 458 l 58 457 l 143 821 z "},"’":{"ha":400,"x_min":58,"x_max":303,"o":"m 143 821 l 303 821 l 218 458 l 58 457 l 143 821 z "},"“":{"ha":658,"x_min":58,"x_max":561,"o":"m 143 821 l 303 821 l 218 458 l 58 457 l 143 821 m 400 821 l 561 819 l 476 457 l 317 457 l 400 821 z "},"”":{"ha":658,"x_min":58,"x_max":561,"o":"m 143 821 l 303 821 l 218 458 l 58 457 l 143 821 m 400 821 l 561 819 l 476 457 l 317 457 l 400 821 z "},"　":{"ha":1389,"x_min":0,"x_max":0,"o":""},"":{"ha":417,"x_min":0,"x_max":0,"o":""}}}
